<svg width="35" height="34" viewBox="0 0 35 34" fill="none" xmlns="http://www.w3.org/2000/svg">
<path d="M7.89697 13.2555C10.1438 8.80952 14.7463 5.76611 20.0638 5.76611C27.5872 5.76611 33.6808 11.8597 33.6808 19.3831C33.6808 26.9065 27.5872 33.0002 20.0638 33.0002C14.7463 33.0002 10.1438 29.9568 7.90378 25.5108" stroke="#F95656" stroke-miterlimit="10" stroke-linecap="round" stroke-linejoin="round"/>
<path d="M20.0645 5.76596V1" stroke="#F95656" stroke-miterlimit="10" stroke-linecap="round" stroke-linejoin="round"/>
<path d="M24.1487 1H15.9785" stroke="#F95656" stroke-miterlimit="10" stroke-linecap="round" stroke-linejoin="round"/>
<path d="M20.064 21.4259C21.1921 21.4259 22.1066 20.5114 22.1066 19.3834C22.1066 18.2553 21.1921 17.3408 20.064 17.3408C18.936 17.3408 18.0215 18.2553 18.0215 19.3834C18.0215 20.5114 18.936 21.4259 20.064 21.4259Z" stroke="#F95656" stroke-miterlimit="10" stroke-linecap="round" stroke-linejoin="round"/>
<path d="M18.6339 17.9537L13.2075 12.5273" stroke="#F95656" stroke-miterlimit="10" stroke-linecap="round" stroke-linejoin="round"/>
<path d="M31.6386 7.80859L30.2769 9.1703" stroke="#F95656" stroke-miterlimit="10" stroke-linecap="round" stroke-linejoin="round"/>
<path d="M10.5325 19.3833H2.3623" stroke="#F95656" stroke-miterlimit="10" stroke-linecap="round" stroke-linejoin="round"/>
<path d="M8.48936 15.978H1" stroke="#F95656" stroke-miterlimit="10" stroke-linecap="round" stroke-linejoin="round"/>
<path d="M9.17025 22.7866H4.4043" stroke="#F95656" stroke-miterlimit="10" stroke-linecap="round" stroke-linejoin="round"/>
</svg>
