<svg width="24" height="23" viewBox="0 0 24 23" fill="none" xmlns="http://www.w3.org/2000/svg">
<path d="M14.8077 19.7583H1.00342V1.35254H8.36572L11.1266 3.19311H23.0903V12.8561" stroke="white" stroke-width="1.11749" stroke-miterlimit="10" stroke-linecap="round" stroke-linejoin="round"/>
<path d="M17.1721 21.0009L19.9169 18.2465C20.4065 17.7503 20.7577 17.3348 20.9703 16.9997C21.183 16.6582 21.2893 16.3489 21.2893 16.0719C21.2893 15.6209 21.1475 15.2697 20.864 15.0184C20.5805 14.7607 20.1939 14.6318 19.7042 14.6318C19.3692 14.6318 19.0792 14.7091 18.8344 14.8638C18.596 15.012 18.4124 15.2117 18.2835 15.463C18.1611 15.7143 18.0999 15.9881 18.0999 16.2845H17.0851C17.0851 15.8142 17.1914 15.3857 17.404 14.9991C17.6231 14.6125 17.9324 14.3064 18.3318 14.0809C18.7313 13.849 19.192 13.733 19.7139 13.733C20.2294 13.733 20.6804 13.8297 21.067 14.0229C21.46 14.2162 21.7628 14.4901 21.9755 14.8445C22.1881 15.1988 22.2944 15.6048 22.2944 16.0622C22.2944 16.4681 22.172 16.8708 21.9271 17.2703C21.6823 17.6698 21.2603 18.1756 20.6611 18.7877L18.6314 20.7786H22.5554V21.6581H17.1721V21.0009Z" fill="white"/>
</svg>
