<svg width="24" height="22" viewBox="0 0 24 22" fill="none" xmlns="http://www.w3.org/2000/svg">
<path d="M14.8043 19.4057H1V1H8.3623L11.1232 2.84057H23.0869V12.5036" stroke="white" stroke-width="1.11749" stroke-miterlimit="10" stroke-linecap="round" stroke-linejoin="round"/>
<path d="M19.8455 21.4796C19.3043 21.4796 18.8275 21.3765 18.4151 21.1703C18.0092 20.9705 17.6935 20.6935 17.468 20.3391C17.2425 19.9783 17.1201 19.5724 17.1007 19.1214H18.1059C18.1188 19.553 18.2798 19.9074 18.5891 20.1845C18.8984 20.4615 19.3172 20.6001 19.8455 20.6001C20.1999 20.6001 20.506 20.5389 20.7637 20.4164C21.0279 20.294 21.2276 20.1265 21.3629 19.9139C21.5047 19.7012 21.5755 19.4661 21.5755 19.2083C21.5755 18.7766 21.4112 18.4384 21.0826 18.1935C20.754 17.9487 20.2966 17.8263 19.7102 17.8263H18.8597V16.9854H19.7102C20.1999 16.9854 20.5962 16.8598 20.899 16.6085C21.2083 16.3508 21.3629 16.0222 21.3629 15.6227C21.3629 15.3714 21.2985 15.1427 21.1696 14.9365C21.0407 14.7239 20.8507 14.5563 20.5994 14.4339C20.3545 14.3115 20.0678 14.2503 19.7392 14.2503C19.4042 14.2503 19.1142 14.3212 18.8694 14.4629C18.6245 14.6047 18.4377 14.7947 18.3088 15.0331C18.1864 15.2715 18.1252 15.5293 18.1252 15.8063H17.1104C17.1104 15.3553 17.2199 14.9462 17.439 14.5789C17.6581 14.2052 17.9673 13.912 18.3668 13.6994C18.7663 13.4868 19.2238 13.3805 19.7392 13.3805C20.2547 13.3805 20.7121 13.4803 21.1116 13.6801C21.5111 13.8734 21.8204 14.1408 22.0394 14.4823C22.2585 14.8173 22.368 15.1878 22.368 15.5937C22.368 16.0447 22.2327 16.4313 21.9621 16.7535C21.6915 17.0756 21.3661 17.2818 20.986 17.372C21.4177 17.4493 21.7882 17.6491 22.0974 17.9712C22.4131 18.287 22.571 18.6961 22.571 19.1987C22.571 19.6304 22.455 20.0202 22.2231 20.3681C21.9976 20.7096 21.6754 20.9802 21.2566 21.18C20.8442 21.3797 20.3739 21.4796 19.8455 21.4796Z" fill="white"/>
</svg>
