<svg width="236" height="176" viewBox="0 0 236 176" fill="none" xmlns="http://www.w3.org/2000/svg">
<path d="M234.997 118C234.997 100.153 230.914 82.5428 223.061 66.5168C215.207 50.4907 203.792 36.4736 189.688 25.5383C175.583 14.603 159.164 7.03927 141.687 3.426C124.21 -0.187275 106.138 0.245672 88.8536 4.6917C71.5694 9.13774 55.5314 17.479 41.967 29.0772C28.4026 40.6753 17.6714 55.2229 10.5945 71.6067C3.5176 87.9905 0.282674 105.776 1.13728 123.602C1.99188 141.429 6.91336 158.823 15.5251 174.455L66.7626 146.228C62.4567 138.412 59.996 129.714 59.5687 120.801C59.1414 111.888 60.7588 102.995 64.2973 94.8033C67.8357 86.6115 73.2013 79.3377 79.9835 73.5386C86.7657 67.7395 94.7847 63.5689 103.427 61.3459C112.069 59.1228 121.105 58.9064 129.844 60.713C138.582 62.5196 146.792 66.3015 153.844 71.7692C160.896 77.2368 166.604 84.2453 170.53 92.2584C174.457 100.271 176.499 109.077 176.499 118H234.997Z" fill="#FF9A3C" stroke="#919191" stroke-width="2"/>
</svg>
