<svg width="22" height="22" viewBox="0 0 22 22" fill="none" xmlns="http://www.w3.org/2000/svg">
<path d="M21.5 12.75V9.25H19.1244C18.91 8.2525 18.5163 7.325 17.9781 6.49375L19.6625 4.80938L17.1862 2.3375L15.5062 4.02188C14.675 3.48375 13.7475 3.09 12.75 2.87562V0.5H9.25V2.87562C8.2525 3.09 7.325 3.48375 6.49375 4.02188L4.81375 2.3375L2.3375 4.81375L4.02188 6.49813C3.48375 7.32938 3.09 8.25688 2.87562 9.25438H0.5V12.7544H2.87562C3.09 13.7519 3.48375 14.6794 4.02188 15.5106L2.3375 17.1862L4.81375 19.6625L6.49813 17.9781C7.32938 18.5163 8.25688 18.91 9.25438 19.1244V21.5H12.7544V19.1244C13.7519 18.91 14.6794 18.5163 15.5106 17.9781L17.195 19.6625L19.6712 17.1862L17.9869 15.5019C18.525 14.6706 18.9188 13.7431 19.1331 12.7456H21.5V12.75Z" stroke="#D8D8D8" stroke-miterlimit="10" stroke-linejoin="round"/>
<path d="M11 14.9375C13.1746 14.9375 14.9375 13.1746 14.9375 11C14.9375 8.82538 13.1746 7.0625 11 7.0625C8.82538 7.0625 7.0625 8.82538 7.0625 11C7.0625 13.1746 8.82538 14.9375 11 14.9375Z" stroke="#D8D8D8" stroke-miterlimit="10" stroke-linejoin="round"/>
</svg>
