<svg width="34" height="33" viewBox="0 0 34 33" fill="none" xmlns="http://www.w3.org/2000/svg">
<path d="M7.39648 12.7555C9.64329 8.30952 14.2458 5.26611 19.5633 5.26611C27.0867 5.26611 33.1803 11.3597 33.1803 18.8831C33.1803 26.4065 27.0867 32.5002 19.5633 32.5002C14.2458 32.5002 9.64329 29.4568 7.40329 25.0108" stroke="black" stroke-miterlimit="10" stroke-linecap="round" stroke-linejoin="round"/>
<path d="M19.5635 5.26596V0.5" stroke="black" stroke-miterlimit="10" stroke-linecap="round" stroke-linejoin="round"/>
<path d="M23.6487 0.5H15.4785" stroke="black" stroke-miterlimit="10" stroke-linecap="round" stroke-linejoin="round"/>
<path d="M19.564 20.9259C20.6921 20.9259 21.6066 20.0114 21.6066 18.8834C21.6066 17.7553 20.6921 16.8408 19.564 16.8408C18.436 16.8408 17.5215 17.7553 17.5215 18.8834C17.5215 20.0114 18.436 20.9259 19.564 20.9259Z" stroke="black" stroke-miterlimit="10" stroke-linecap="round" stroke-linejoin="round"/>
<path d="M18.1334 17.4537L12.707 12.0273" stroke="black" stroke-miterlimit="10" stroke-linecap="round" stroke-linejoin="round"/>
<path d="M31.1381 7.30859L29.7764 8.6703" stroke="black" stroke-miterlimit="10" stroke-linecap="round" stroke-linejoin="round"/>
<path d="M10.0325 18.8833H1.8623" stroke="black" stroke-miterlimit="10" stroke-linecap="round" stroke-linejoin="round"/>
<path d="M7.98936 15.478H0.5" stroke="black" stroke-miterlimit="10" stroke-linecap="round" stroke-linejoin="round"/>
<path d="M8.67025 22.2866H3.9043" stroke="black" stroke-miterlimit="10" stroke-linecap="round" stroke-linejoin="round"/>
</svg>
