<svg width="25" height="24" viewBox="0 0 25 24" fill="none" xmlns="http://www.w3.org/2000/svg">
<path d="M5.45723 9.30857C7.07209 6.1131 10.3801 3.9257 14.2019 3.9257C19.6093 3.9257 23.989 8.3054 23.989 13.7127C23.989 19.1201 19.6093 23.4998 14.2019 23.4998C10.3801 23.4998 7.07209 21.3124 5.46212 18.1169" stroke="white" stroke-miterlimit="10" stroke-linecap="round" stroke-linejoin="round"/>
<path d="M14.202 3.92545V0.49999" stroke="white" stroke-miterlimit="10" stroke-linecap="round" stroke-linejoin="round"/>
<path d="M17.1379 0.49999H11.2657" stroke="white" stroke-miterlimit="10" stroke-linecap="round" stroke-linejoin="round"/>
<path d="M14.2019 15.1805C15.0127 15.1805 15.6699 14.5232 15.6699 13.7124C15.6699 12.9017 15.0127 12.2444 14.2019 12.2444C13.3911 12.2444 12.7338 12.9017 12.7338 13.7124C12.7338 14.5232 13.3911 15.1805 14.2019 15.1805Z" stroke="white" stroke-miterlimit="10" stroke-linecap="round" stroke-linejoin="round"/>
<path d="M13.1741 12.6851L9.27398 8.78498" stroke="white" stroke-miterlimit="10" stroke-linecap="round" stroke-linejoin="round"/>
<path d="M22.521 5.39344L21.5423 6.37215" stroke="white" stroke-miterlimit="10" stroke-linecap="round" stroke-linejoin="round"/>
<path d="M7.35107 13.7126H1.47885" stroke="white" stroke-miterlimit="10" stroke-linecap="round" stroke-linejoin="round"/>
<path d="M5.88286 11.2659H0.49999" stroke="white" stroke-miterlimit="10" stroke-linecap="round" stroke-linejoin="round"/>
<path d="M6.37212 16.1593H2.94666" stroke="white" stroke-miterlimit="10" stroke-linecap="round" stroke-linejoin="round"/>
</svg>
