<svg width="28" height="24" viewBox="0 0 28 24" fill="none" xmlns="http://www.w3.org/2000/svg">
<path d="M27.4951 20H0V0H27.4951V20ZM1.3478 18.6486H26.1473V1.35135H1.3478V18.6486Z" fill="white"/>
<path d="M26.8212 14.3784H0.673919V15.7298H26.8212V14.3784Z" fill="white"/>
<path d="M24.2335 17.7782C24.6027 17.7782 24.902 17.4781 24.902 17.1079C24.902 16.7377 24.6027 16.4376 24.2335 16.4376C23.8643 16.4376 23.565 16.7377 23.565 17.1079C23.565 17.4781 23.8643 17.7782 24.2335 17.7782Z" fill="white"/>
<path d="M22.0231 17.7782C22.3923 17.7782 22.6916 17.4781 22.6916 17.1079C22.6916 16.7377 22.3923 16.4376 22.0231 16.4376C21.6539 16.4376 21.3546 16.7377 21.3546 17.1079C21.3546 17.4781 21.6539 17.7782 22.0231 17.7782Z" fill="white"/>
<path d="M14.3946 19.2702H13.0468V23.3243H14.3946V19.2702Z" fill="white"/>
<path d="M18.6534 22.6487H8.78755V24.0001H18.6534V22.6487Z" fill="white"/>
</svg>
