<svg width="26" height="26" viewBox="0 0 26 26" fill="none" xmlns="http://www.w3.org/2000/svg">
<path d="M25.4905 15.0818V10.9182H22.6645C22.4095 9.73165 21.9411 8.62832 21.301 7.63949L23.3047 5.6358L20.359 2.69532L18.3605 4.69901C17.3717 4.05887 16.2684 3.59048 15.0818 3.33546V0.509482H10.9182V3.33546C9.73165 3.59048 8.62832 4.05887 7.63949 4.69901L5.641 2.69532L2.69532 5.641L4.69901 7.64469C4.05887 8.63352 3.59048 9.73685 3.33546 10.9235H0.509482V15.087H3.33546C3.59048 16.2736 4.05887 17.3769 4.69901 18.3657L2.69532 20.359L5.641 23.3047L7.64469 21.301C8.63352 21.9411 9.73685 22.4095 10.9235 22.6645V25.4905H15.087V22.6645C16.2736 22.4095 17.3769 21.9411 18.3657 21.301L20.3694 23.3047L23.3151 20.359L21.3114 18.3553C21.9515 17.3665 22.4199 16.2631 22.6749 15.0765H25.4905V15.0818Z" stroke="white" stroke-miterlimit="10" stroke-linejoin="round"/>
<path d="M13 17.6838C15.5869 17.6838 17.6839 15.5867 17.6839 12.9998C17.6839 10.413 15.5869 8.3159 13 8.3159C10.4131 8.3159 8.31606 10.413 8.31606 12.9998C8.31606 15.5867 10.4131 17.6838 13 17.6838Z" stroke="white" stroke-miterlimit="10" stroke-linejoin="round"/>
</svg>
