<svg width="28" height="24" viewBox="0 0 28 24" fill="none" xmlns="http://www.w3.org/2000/svg">
<path d="M27.2523 19.8234H0V0H27.2523V19.8234ZM1.3359 18.4839H25.9164V1.33942H1.3359V18.4839Z" fill="white"/>
<path d="M26.5844 14.2515H0.667969V15.5909H26.5844V14.2515Z" fill="white"/>
<path d="M24.02 17.6212C24.386 17.6212 24.6826 17.3237 24.6826 16.9568C24.6826 16.5899 24.386 16.2925 24.02 16.2925C23.6541 16.2925 23.3574 16.5899 23.3574 16.9568C23.3574 17.3237 23.6541 17.6212 24.02 17.6212Z" fill="white"/>
<path d="M21.8286 17.6212C22.1946 17.6212 22.4912 17.3237 22.4912 16.9568C22.4912 16.5899 22.1946 16.2925 21.8286 16.2925C21.4627 16.2925 21.166 16.5899 21.166 16.9568C21.166 17.3237 21.4627 17.6212 21.8286 17.6212Z" fill="white"/>
<path d="M14.2675 19.1001H12.9316V23.1183H14.2675V19.1001Z" fill="white"/>
<path d="M18.4887 22.4487H8.70996V23.7881H18.4887V22.4487Z" fill="white"/>
</svg>
