<svg width="25" height="25" viewBox="0 0 25 25" fill="none" xmlns="http://www.w3.org/2000/svg">
<path d="M5.95703 9.80876C7.57192 6.61323 10.88 4.42578 14.7019 4.42578C20.1094 4.42578 24.4892 8.80557 24.4892 14.213C24.4892 19.6205 20.1094 24.0002 14.7019 24.0002C10.88 24.0002 7.57192 21.8128 5.96192 18.6173" stroke="white" stroke-miterlimit="10" stroke-linecap="round" stroke-linejoin="round"/>
<path d="M14.7021 4.42553V1" stroke="white" stroke-miterlimit="10" stroke-linecap="round" stroke-linejoin="round"/>
<path d="M17.638 1H11.7656" stroke="white" stroke-miterlimit="10" stroke-linecap="round" stroke-linejoin="round"/>
<path d="M14.7025 15.6808C15.5133 15.6808 16.1705 15.0235 16.1705 14.2127C16.1705 13.4019 15.5133 12.7446 14.7025 12.7446C13.8917 12.7446 13.2344 13.4019 13.2344 14.2127C13.2344 15.0235 13.8917 15.6808 14.7025 15.6808Z" stroke="white" stroke-miterlimit="10" stroke-linecap="round" stroke-linejoin="round"/>
<path d="M13.6746 13.1854L9.77441 9.28516" stroke="white" stroke-miterlimit="10" stroke-linecap="round" stroke-linejoin="round"/>
<path d="M23.0217 5.89355L22.043 6.87228" stroke="white" stroke-miterlimit="10" stroke-linecap="round" stroke-linejoin="round"/>
<path d="M7.85086 14.2129H1.97852" stroke="white" stroke-miterlimit="10" stroke-linecap="round" stroke-linejoin="round"/>
<path d="M6.38298 11.7661H1" stroke="white" stroke-miterlimit="10" stroke-linecap="round" stroke-linejoin="round"/>
<path d="M6.87182 16.6597H3.44629" stroke="white" stroke-miterlimit="10" stroke-linecap="round" stroke-linejoin="round"/>
</svg>
