<svg width="24" height="23" viewBox="0 0 24 23" fill="none" xmlns="http://www.w3.org/2000/svg">
<path d="M14.8077 19.7583H1.00342V1.35254H8.36572L11.1266 3.19311H23.0903V12.8561" fill="#BFBFBF"/>
<path d="M14.8077 19.7583H1.00342V1.35254H8.36572L11.1266 3.19311H23.0903V12.8561" stroke="white" stroke-width="1.11749" stroke-miterlimit="10" stroke-linecap="round" stroke-linejoin="round"/>
<path d="M17.1718 21.0009L19.9166 18.2465C20.4063 17.7503 20.7575 17.3348 20.9701 16.9997C21.1827 16.6582 21.289 16.3489 21.289 16.0719C21.289 15.6209 21.1473 15.2697 20.8638 15.0184C20.5803 14.7607 20.1937 14.6318 19.704 14.6318C19.3689 14.6318 19.079 14.7091 18.8342 14.8638C18.5958 15.012 18.4121 15.2117 18.2833 15.463C18.1608 15.7143 18.0996 15.9881 18.0996 16.2845H17.0848C17.0848 15.8142 17.1911 15.3857 17.4038 14.9991C17.6228 14.6125 17.9321 14.3064 18.3316 14.0809C18.7311 13.849 19.1918 13.733 19.7137 13.733C20.2291 13.733 20.6801 13.8297 21.0667 14.0229C21.4598 14.2162 21.7626 14.4901 21.9752 14.8445C22.1878 15.1988 22.2942 15.6048 22.2942 16.0622C22.2942 16.4681 22.1717 16.8708 21.9269 17.2703C21.6821 17.6698 21.26 18.1756 20.6608 18.7877L18.6312 20.7786H22.5551V21.6581H17.1718V21.0009Z" fill="white"/>
</svg>
