<svg width="24" height="22" viewBox="0 0 24 22" fill="none" xmlns="http://www.w3.org/2000/svg">
<path d="M14.8043 19.4057H1V1H8.3623L11.1232 2.84057H23.0869V12.5036" fill="#BFBFBF"/>
<path d="M14.8043 19.4057H1V1H8.3623L11.1232 2.84057H23.0869V12.5036" stroke="white" stroke-width="1.11749" stroke-miterlimit="10" stroke-linecap="round" stroke-linejoin="round"/>
<path d="M19.8458 21.4796C19.3045 21.4796 18.8278 21.3765 18.4154 21.1703C18.0095 20.9705 17.6937 20.6935 17.4682 20.3391C17.2427 19.9783 17.1203 19.5724 17.101 19.1214H18.1061C18.119 19.553 18.2801 19.9074 18.5894 20.1845C18.8986 20.4615 19.3174 20.6001 19.8458 20.6001C20.2002 20.6001 20.5062 20.5389 20.7639 20.4164C21.0281 20.294 21.2278 20.1265 21.3631 19.9139C21.5049 19.7012 21.5758 19.4661 21.5758 19.2083C21.5758 18.7766 21.4115 18.4384 21.0829 18.1935C20.7543 17.9487 20.2968 17.8263 19.7105 17.8263H18.86V16.9854H19.7105C20.2002 16.9854 20.5964 16.8598 20.8992 16.6085C21.2085 16.3508 21.3631 16.0222 21.3631 15.6227C21.3631 15.3714 21.2987 15.1427 21.1699 14.9365C21.041 14.7239 20.8509 14.5563 20.5996 14.4339C20.3548 14.3115 20.0681 14.2503 19.7395 14.2503C19.4044 14.2503 19.1145 14.3212 18.8696 14.4629C18.6248 14.6047 18.4379 14.7947 18.3091 15.0331C18.1867 15.2715 18.1254 15.5293 18.1254 15.8063H17.1106C17.1106 15.3553 17.2202 14.9462 17.4392 14.5789C17.6583 14.2052 17.9676 13.912 18.3671 13.6994C18.7665 13.4868 19.224 13.3805 19.7395 13.3805C20.2549 13.3805 20.7124 13.4803 21.1119 13.6801C21.5113 13.8734 21.8206 14.1408 22.0397 14.4823C22.2588 14.8173 22.3683 15.1878 22.3683 15.5937C22.3683 16.0447 22.233 16.4313 21.9624 16.7535C21.6918 17.0756 21.3664 17.2818 20.9862 17.372C21.4179 17.4493 21.7884 17.6491 22.0977 17.9712C22.4134 18.287 22.5712 18.6961 22.5712 19.1987C22.5712 19.6304 22.4553 20.0202 22.2233 20.3681C21.9978 20.7096 21.6756 20.9802 21.2568 21.18C20.8445 21.3797 20.3741 21.4796 19.8458 21.4796Z" fill="white"/>
</svg>
