<svg width="27" height="27" viewBox="0 0 27 27" fill="none" xmlns="http://www.w3.org/2000/svg">
<path d="M25.5161 15.3011V11.2151H22.7427C22.4925 10.0505 22.0328 8.96774 21.4046 7.99731L23.371 6.03091L20.4801 3.14516L18.5188 5.11156C17.5484 4.48333 16.4656 4.02366 15.3011 3.77339V1H11.2151V3.77339C10.0505 4.02366 8.96774 4.48333 7.99731 5.11156L6.03602 3.14516L3.14516 6.03602L5.11156 8.00242C4.48333 8.97285 4.02366 10.0556 3.77339 11.2202H1V15.3062H3.77339C4.02366 16.4707 4.48333 17.5535 5.11156 18.5239L3.14516 20.4801L6.03602 23.371L8.00242 21.4046C8.97285 22.0328 10.0556 22.4925 11.2202 22.7427V25.5161H15.3062V22.7427C16.4707 22.4925 17.5535 22.0328 18.5239 21.4046L20.4903 23.371L23.3812 20.4801L21.4148 18.5137C22.043 17.5433 22.5027 16.4605 22.753 15.296H25.5161V15.3011Z" stroke="white" stroke-miterlimit="10" stroke-linejoin="round"/>
<path d="M13.2579 17.8547C15.7966 17.8547 17.8547 15.7966 17.8547 13.2579C17.8547 10.7192 15.7966 8.66113 13.2579 8.66113C10.7192 8.66113 8.66113 10.7192 8.66113 13.2579C8.66113 15.7966 10.7192 17.8547 13.2579 17.8547Z" stroke="white" stroke-miterlimit="10" stroke-linejoin="round"/>
</svg>
