<svg width="23" height="23" viewBox="0 0 23 23" fill="none" xmlns="http://www.w3.org/2000/svg">
<path d="M22 13.25V9.75H19.6244C19.41 8.7525 19.0163 7.825 18.4781 6.99375L20.1625 5.30938L17.6862 2.8375L16.0062 4.52188C15.175 3.98375 14.2475 3.59 13.25 3.37562V1H9.75V3.37562C8.7525 3.59 7.825 3.98375 6.99375 4.52188L5.31375 2.8375L2.8375 5.31375L4.52188 6.99813C3.98375 7.82938 3.59 8.75688 3.37562 9.75438H1V13.2544H3.37562C3.59 14.2519 3.98375 15.1794 4.52188 16.0106L2.8375 17.6862L5.31375 20.1625L6.99813 18.4781C7.82938 19.0163 8.75688 19.41 9.75438 19.6244V22H13.2544V19.6244C14.2519 19.41 15.1794 19.0163 16.0106 18.4781L17.695 20.1625L20.1712 17.6862L18.4869 16.0019C19.025 15.1706 19.4188 14.2431 19.6331 13.2456H22V13.25Z" stroke="#D8D8D8" stroke-miterlimit="10" stroke-linejoin="round"/>
<path d="M11.5 15.4375C13.6746 15.4375 15.4375 13.6746 15.4375 11.5C15.4375 9.32538 13.6746 7.5625 11.5 7.5625C9.32538 7.5625 7.5625 9.32538 7.5625 11.5C7.5625 13.6746 9.32538 15.4375 11.5 15.4375Z" stroke="#D8D8D8" stroke-miterlimit="10" stroke-linejoin="round"/>
</svg>
